<svg width="60" height="60" viewBox="0 0 42 38" fill="none" xmlns="http://www.w3.org/2000/svg">
<path fill-rule="evenodd" clip-rule="evenodd" d="M39.6413 37.2653C41.1533 37.2653 42.0413 35.5933 41.3186 34.348L22.8306 2.33332C22.0666 1.00665 20.192 1.09332 19.4693 2.33332L0.982631 34.348C0.229298 35.6573 1.22795 37.2653 2.66662 37.2653H39.6413Z" fill="#918F90"/>
<path fill-rule="evenodd" clip-rule="evenodd" d="M39.6413 36.876C41.1533 36.876 42.0413 35.2053 41.3186 33.9586L22.8306 1.94264C22.0666 0.617308 20.192 0.702642 19.4693 1.94264L0.982631 33.9586C0.229298 35.2653 1.22795 36.876 2.66662 36.876H39.6413Z" fill="white"/>
<path d="M39.6413 36.876C41.1533 36.876 42.0413 35.2053 41.3186 33.9586L22.8306 1.94264C22.0666 0.617308 20.192 0.702642 19.4693 1.94264L0.982631 33.9586C0.229298 35.2653 1.22795 36.876 2.66662 36.876H39.6413Z" stroke="#231F20" stroke-width="0.215067" stroke-miterlimit="22.9256"/>
<path fill-rule="evenodd" clip-rule="evenodd" d="M39.6413 36.1426C40.5906 36.1426 41.128 35.0986 40.6906 34.3213L22.196 2.30797C21.716 1.47464 20.5493 1.54797 20.0986 2.30797L1.61728 34.3213C1.14262 35.1306 1.76663 36.1426 2.66663 36.1426H39.6413Z" fill="#ED1C24"/>
<path fill-rule="evenodd" clip-rule="evenodd" d="M6.87329 32.5027H35.4346L21.1533 7.76536L6.87329 32.5027Z" fill="#FFF200"/>
<path fill-rule="evenodd" clip-rule="evenodd" d="M30.2853 31.3134C30.2853 30.368 30.2853 29.4213 30.2853 28.476C27.6666 28.476 27.9573 25.9627 25.8013 25.9627C23.6293 25.9627 23.8026 28.476 21.0493 28.476C18.2613 28.476 18.564 25.9627 16.4293 25.9627C14.3026 25.9627 14.6546 28.476 12.0133 28.476V31.3134H30.2853Z" fill="#231F20"/>
</svg>
