<svg width="60" height="60" viewBox="0 0 42 37" fill="none" xmlns="http://www.w3.org/2000/svg">
<path fill-rule="evenodd" clip-rule="evenodd" d="M39.6413 36.876C41.1533 36.876 42.0413 35.2053 41.3186 33.9586L22.8306 1.94264C22.0666 0.617308 20.192 0.702642 19.4693 1.94264L0.982631 33.9586C0.229298 35.2653 1.22795 36.876 2.66662 36.876H39.6413Z" fill="white"/>
<path d="M39.3702 36.7708C40.8809 36.7708 41.7702 35.1001 41.0476 33.8534L22.5609 1.83744C21.7955 0.512103 19.9209 0.597436 19.1995 1.83744L0.711578 33.8534C-0.0404222 35.1601 0.958195 36.7708 2.39419 36.7708H39.3702Z" stroke="#231F20" stroke-width="0.214267" stroke-miterlimit="22.9256"/>
<path fill-rule="evenodd" clip-rule="evenodd" d="M39.3703 36.0374C40.3209 36.0374 40.8569 34.9934 40.4195 34.2161L21.9249 2.20276C21.4449 1.36943 20.2782 1.44276 19.8276 2.20276L1.34624 34.2161C0.870241 35.0254 1.49422 36.0374 2.39422 36.0374H39.3703Z" fill="#ED1C24"/>
<path fill-rule="evenodd" clip-rule="evenodd" d="M6.60223 32.3974H35.1636L20.8822 7.66011L6.60223 32.3974Z" fill="#FFF200"/>
<path fill-rule="evenodd" clip-rule="evenodd" d="M7.69421 30.5068L8.24493 29.5521H10.2983C10.9249 29.5521 11.4369 29.2028 11.4369 28.7734V27.7361C11.4369 27.3081 10.9249 26.9574 10.2983 26.9574H9.74356L11.2662 24.3188H13.3156V22.1321H13.3182C13.3182 21.8108 13.2089 21.5121 13.0262 21.2721L13.4822 20.4801C13.4942 20.4881 13.5036 20.4988 13.5143 20.5094C13.9303 20.9254 14.1902 21.5001 14.1902 22.1321H14.1915V24.4281C14.9089 24.6868 15.4249 25.3761 15.4249 26.1788V28.6601C15.4249 29.3481 15.0462 29.9521 14.4876 30.2734V31.8494C14.4876 32.1521 14.2582 32.3974 13.9769 32.3974H13.2956C13.0142 32.3974 12.7849 32.1521 12.7849 31.8494V30.5214H7.91694C7.84227 30.5214 7.76621 30.5161 7.69421 30.5068Z" fill="#231F20"/>
<path fill-rule="evenodd" clip-rule="evenodd" d="M23.7582 16.3148C24.2089 16.3148 24.5742 16.6774 24.5742 17.1268C24.5742 17.5774 24.2089 17.9414 23.7582 17.9414C23.3102 17.9414 22.9462 17.5774 22.9462 17.1268C22.9462 16.6774 23.3102 16.3148 23.7582 16.3148Z" fill="#231F20"/>
<path fill-rule="evenodd" clip-rule="evenodd" d="M21.8689 18.5134C22.2449 18.5134 22.5503 18.8188 22.5503 19.1961C22.5503 19.5721 22.2449 19.8761 21.8689 19.8761C21.4916 19.8761 21.1862 19.5721 21.1862 19.1961C21.1862 18.8188 21.4916 18.5134 21.8689 18.5134Z" fill="#231F20"/>
<path fill-rule="evenodd" clip-rule="evenodd" d="M16.5689 29.4654C16.5689 29.4654 23.8703 19.2161 24.8369 19.8321C25.8049 20.4494 16.5689 29.4654 16.5689 29.4654Z" fill="#231F20"/>
<path fill-rule="evenodd" clip-rule="evenodd" d="M25.9596 21.4174C26.3343 21.4174 26.6409 21.7214 26.6409 22.0974C26.6409 22.4748 26.3343 22.7788 25.9596 22.7788C25.5836 22.7788 25.2769 22.4748 25.2769 22.0974C25.2769 21.7214 25.5836 21.4174 25.9596 21.4174Z" fill="#231F20"/>
<path fill-rule="evenodd" clip-rule="evenodd" d="M17.0569 29.9561C17.0569 29.9561 24.1902 24.4534 24.7249 25.0774C25.2609 25.7014 17.0569 29.9561 17.0569 29.9561Z" fill="#231F20"/>
<path fill-rule="evenodd" clip-rule="evenodd" d="M17.3823 30.5681C17.3823 30.5681 25.4409 26.9921 25.7569 27.8321C26.0743 28.6761 17.3823 30.5681 17.3823 30.5681Z" fill="#231F20"/>
<path fill-rule="evenodd" clip-rule="evenodd" d="M17.5036 31.0961C17.5036 31.0961 28.8703 29.4454 29.0596 30.5748C29.2516 31.7028 17.5036 31.0961 17.5036 31.0961Z" fill="#231F20"/>
<path fill-rule="evenodd" clip-rule="evenodd" d="M26.0462 25.2001C26.3756 25.2001 26.6409 25.4641 26.6409 25.7935C26.6409 26.1215 26.3756 26.3868 26.0462 26.3868C25.7196 26.3868 25.4529 26.1215 25.4529 25.7935C25.4529 25.4641 25.7196 25.2001 26.0462 25.2001Z" fill="#231F20"/>
<path fill-rule="evenodd" clip-rule="evenodd" d="M28.2903 26.2548C28.7143 26.2548 29.0596 26.6001 29.0596 27.0254C29.0596 27.4481 28.7143 27.7948 28.2903 27.7948C27.8649 27.7948 27.5209 27.4481 27.5209 27.0254C27.5209 26.6001 27.8649 26.2548 28.2903 26.2548Z" fill="#231F20"/>
<path fill-rule="evenodd" clip-rule="evenodd" d="M29.6982 28.0148C30.0262 28.0148 30.2915 28.2814 30.2915 28.6068C30.2915 28.9361 30.0262 29.2028 29.6982 29.2028C29.3702 29.2028 29.1036 28.9361 29.1036 28.6068C29.1036 28.2814 29.3702 28.0148 29.6982 28.0148Z" fill="#231F20"/>
<path fill-rule="evenodd" clip-rule="evenodd" d="M30.8849 29.8161C31.3115 29.8161 31.6542 30.1614 31.6542 30.5881C31.6542 31.0121 31.3115 31.3574 30.8849 31.3574C30.4609 31.3574 30.1155 31.0121 30.1155 30.5881C30.1155 30.1614 30.4609 29.8161 30.8849 29.8161Z" fill="#231F20"/>
<path fill-rule="evenodd" clip-rule="evenodd" d="M13.2915 25.1521C13.9115 25.1521 14.4129 25.6575 14.4129 26.2748C14.4129 26.8948 13.9115 27.3974 13.2915 27.3974C12.6715 27.3974 12.1689 26.8948 12.1689 26.2748C12.1689 25.6575 12.6715 25.1521 13.2915 25.1521ZM13.7529 28.1014C14.1182 28.1014 14.4129 28.3975 14.4129 28.7615C14.4129 29.1255 14.1182 29.4214 13.7529 29.4214C13.3889 29.4214 13.0942 29.1255 13.0942 28.7615C13.0942 28.3975 13.3889 28.1014 13.7529 28.1014Z" fill="#FFF200"/>
</svg>
