<svg width="60" height="60" viewBox="0 0 42 38" fill="none" xmlns="http://www.w3.org/2000/svg">
<path fill-rule="evenodd" clip-rule="evenodd" d="M39.5133 37.2653C41.024 37.2653 41.9133 35.5933 41.192 34.348L22.7053 2.33332C21.94 1.00665 20.064 1.09332 19.3426 2.33332L0.854683 34.348C0.102683 35.6573 1.10133 37.2653 2.53867 37.2653H39.5133Z" fill="#918F90"/>
<path fill-rule="evenodd" clip-rule="evenodd" d="M39.5133 36.876C41.024 36.876 41.9133 35.2053 41.192 33.9586L22.7053 1.94264C21.94 0.617308 20.064 0.702642 19.3426 1.94264L0.854683 33.9586C0.102683 35.2653 1.10133 36.876 2.53867 36.876H39.5133Z" fill="white"/>
<path d="M39.5133 36.876C41.024 36.876 41.9133 35.2053 41.192 33.9586L22.7053 1.94264C21.94 0.617308 20.064 0.702642 19.3426 1.94264L0.854683 33.9586C0.102683 35.2653 1.10133 36.876 2.53867 36.876H39.5133Z" stroke="#231F20" stroke-width="0.215067" stroke-miterlimit="22.9256"/>
<path fill-rule="evenodd" clip-rule="evenodd" d="M39.5134 36.1426C40.4627 36.1426 41 35.0986 40.5613 34.3213L22.068 2.30797C21.5866 1.47464 20.4213 1.54797 19.9706 2.30797L1.4907 34.3213C1.0147 35.1306 1.63735 36.1426 2.53868 36.1426H39.5134Z" fill="#ED1C24"/>
<path fill-rule="evenodd" clip-rule="evenodd" d="M6.7453 32.5027H35.3066L21.0253 7.76536L6.7453 32.5027Z" fill="#FFF200"/>
<path fill-rule="evenodd" clip-rule="evenodd" d="M16.5093 25.4213C16.5093 25.4213 15.764 26.4413 16.6 27.1306C17.4373 27.82 18.632 28.6 17.7066 29.5906C16.932 30.42 15.8027 31.416 15.452 31.72H17.5027C18.1493 31.14 19.8747 29.628 19.1693 28.5413C18.4667 27.4546 17.008 26.7866 16.9893 26.292C16.972 25.884 17.3774 25.6 17.3774 25.6L16.5093 25.4213Z" fill="#231F20"/>
<path fill-rule="evenodd" clip-rule="evenodd" d="M22.9733 27.088C22.9733 27.088 22.1266 28.0613 23.2333 28.588C24.3386 29.1146 25.9373 29.7253 25.5693 30.4186C25.2786 30.9653 24.7813 31.5133 24.5866 31.72H26.8493C27.2187 31.3346 27.9773 30.3733 27.208 29.6133C26.2266 28.6426 23.772 28.3893 23.644 27.8373C23.6173 27.7213 23.6867 27.4746 23.8853 27.34L22.9733 27.088Z" fill="#231F20"/>
<path fill-rule="evenodd" clip-rule="evenodd" d="M18.3973 24.2573L18.18 25.0667L16.336 24.5733L16.552 23.764L15.7267 23.5427L16.5947 20.3066L17.16 20.4573L18.7066 18.5866L25.528 20.4147L25.932 22.808L26.4973 22.9587L25.628 26.196L24.804 25.976L24.5866 26.784L22.7426 26.2893L22.9587 25.4813L18.3973 24.2573Z" fill="#231F20"/>
<path fill-rule="evenodd" clip-rule="evenodd" d="M25.0373 22.5693L18.0547 20.6987L19.164 19.3533L24.7467 20.8493L25.0373 22.5693Z" fill="#FFF200"/>
</svg>
