<svg width="43" height="38" viewBox="0 0 43 38" fill="none" xmlns="http://www.w3.org/2000/svg">
<path fill-rule="evenodd" clip-rule="evenodd" d="M40.0027 37.2653C41.5133 37.2653 42.4013 35.5933 41.68 34.348L23.192 2.33332C22.428 1.00665 20.552 1.09332 19.8307 2.33332L1.34264 34.348C0.590637 35.6573 1.58932 37.2653 3.02799 37.2653H40.0027Z" fill="#918F90"/>
<path fill-rule="evenodd" clip-rule="evenodd" d="M40.0027 36.876C41.5133 36.876 42.4013 35.2053 41.68 33.9586L23.192 1.94264C22.428 0.617308 20.552 0.702642 19.8307 1.94264L1.34264 33.9586C0.590637 35.2653 1.58932 36.876 3.02799 36.876H40.0027Z" fill="white"/>
<path d="M40.0027 36.876C41.5133 36.876 42.4013 35.2053 41.68 33.9586L23.192 1.94264C22.428 0.617308 20.552 0.702642 19.8307 1.94264L1.34264 33.9586C0.590637 35.2653 1.58932 36.876 3.02799 36.876H40.0027Z" stroke="#231F20" stroke-width="0.215067" stroke-miterlimit="22.9256"/>
<path fill-rule="evenodd" clip-rule="evenodd" d="M40.0027 36.1426C40.952 36.1426 41.4893 35.0986 41.0507 34.3213L22.5574 2.30797C22.0747 1.47464 20.9093 1.54797 20.4587 2.30797L1.98002 34.3213C1.50269 35.1306 2.12667 36.1426 3.028 36.1426H40.0027Z" fill="#ED1C24"/>
<path fill-rule="evenodd" clip-rule="evenodd" d="M35.7946 32.5027H7.23328L21.5133 7.76536L35.7946 32.5027Z" fill="white"/>
<path fill-rule="evenodd" clip-rule="evenodd" d="M35.7946 32.5027H7.23328L21.5133 7.76536L35.7946 32.5027Z" fill="#FFF200"/>
<path fill-rule="evenodd" clip-rule="evenodd" d="M21.5134 28.404C22.4547 28.404 23.2174 29.1653 23.2174 30.1053C23.2174 31.0453 22.4547 31.8093 21.5134 31.8093C20.5747 31.8093 19.812 31.0453 19.812 30.1053C19.812 29.1653 20.5747 28.404 21.5134 28.404ZM19.8134 13.7093L20.34 26.6587C20.3947 27.9813 22.6347 27.9813 22.6881 26.6587L23.2174 13.7093C23.288 11.936 19.7414 11.936 19.8134 13.7093Z" fill="#231F20"/>
</svg>
