<svg width="42" height="38" viewBox="0 0 42 38" fill="none" xmlns="http://www.w3.org/2000/svg">
<path fill-rule="evenodd" clip-rule="evenodd" d="M39.2574 37.2653C40.7694 37.2653 41.6587 35.5933 40.936 34.348L22.448 2.33332C21.684 1.00665 19.808 1.09332 19.0866 2.33332L0.59869 34.348C-0.154643 35.6573 0.84531 37.2653 2.28398 37.2653H39.2574Z" fill="#918F90"/>
<path fill-rule="evenodd" clip-rule="evenodd" d="M39.2574 36.876C40.7694 36.876 41.6587 35.2053 40.936 33.9586L22.448 1.94264C21.684 0.617308 19.808 0.702642 19.0866 1.94264L0.59869 33.9586C-0.154643 35.2653 0.84531 36.876 2.28398 36.876H39.2574Z" fill="white"/>
<path d="M39.2574 36.876C40.7694 36.876 41.6587 35.2053 40.936 33.9586L22.448 1.94264C21.684 0.617308 19.808 0.702642 19.0866 1.94264L0.59869 33.9586C-0.154643 35.2653 0.84531 36.876 2.28398 36.876H39.2574Z" stroke="#231F20" stroke-width="0.215067" stroke-miterlimit="22.9256"/>
<path fill-rule="evenodd" clip-rule="evenodd" d="M39.2574 36.1426C40.208 36.1426 40.744 35.0986 40.3067 34.3213L21.8134 2.30797C21.3307 1.47464 20.1667 1.54797 19.716 2.30797L1.23336 34.3213C0.758693 35.1306 1.38268 36.1426 2.28401 36.1426H39.2574Z" fill="#ED1C24"/>
<path fill-rule="evenodd" clip-rule="evenodd" d="M35.0506 32.5027H6.49066L20.7706 7.76536L35.0506 32.5027Z" fill="white"/>
<path fill-rule="evenodd" clip-rule="evenodd" d="M35.0506 32.5027H6.49066L20.7706 7.76536L35.0506 32.5027Z" fill="#FFF200"/>
<path fill-rule="evenodd" clip-rule="evenodd" d="M19.1547 20.952C19.2574 21.0547 19.4867 21.248 19.5414 21.3867C19.724 21.8427 19.948 22.5627 19.8307 23.0533C19.784 23.2547 19.784 23.424 19.784 23.6333C19.7427 23.688 19.7787 24.5067 19.784 24.624C19.808 25.1907 19.8307 25.6253 19.7601 26.1947C19.7467 26.296 19.7547 26.348 19.6387 26.34C19.5227 26.3293 19.672 26.6267 19.6867 26.6533C19.7493 26.7693 19.7921 26.86 19.7601 26.9907C19.7321 27.0173 19.8214 27.0747 19.8334 27.0853C19.9587 27.1787 20.0907 27.2653 20.2187 27.3547C21.468 28.224 22.732 29.0733 23.9854 29.9373L23.6387 30.0827C22.5734 29.3547 21.4027 28.5213 20.3387 27.7893C20.1667 27.6707 19.6613 27.2707 19.4453 27.2813C19.3747 27.284 19.3107 27.2747 19.252 27.2333C19.18 27.1787 19.1747 27.1853 19.084 27.1853C18.888 27.1853 18.7907 26.9907 18.792 26.8213C18.7947 26.6827 18.552 26.576 18.4533 26.508C18.34 26.4293 18.088 26.1627 18.164 26.46C18.448 27.5453 18.2187 29.264 18.5747 30.132C18.7187 30.4787 18.8907 30.3893 19.1067 30.5907C19.2467 30.5867 19.58 30.792 19.4707 31.0013C19.328 31.2653 18.704 31.3147 18.4533 31.2173C18.1667 31.108 18.0401 31.088 17.7294 31.0987C17.3987 31.108 17.388 30.848 17.416 30.5907C17.4894 29.9213 17.1827 30.032 17.1507 29.72C17.1093 29.348 16.992 28.9613 16.9334 28.5853C16.9214 28.5027 16.8574 28.1187 16.8854 28.0533C16.94 27.924 16.3334 25.66 16.2321 25.3733C16.1787 25.22 16.1467 25.296 16.112 25.3973C15.9133 25.9547 15.5827 26.4333 15.4373 27.016C15.3067 27.5267 15.1147 28.0213 15 28.5387C14.936 28.8333 14.7987 29.108 14.7587 29.4067C14.7387 29.5587 14.6147 29.824 14.6147 29.9373C14.6147 30.036 14.5694 30.0573 14.4947 30.108C14.2787 30.2467 14.524 30.396 14.276 30.5667C14.2507 30.584 14.252 30.6093 14.252 30.64C14.252 31.0147 13.3107 31.024 13.092 30.952C13.0173 30.9267 12.7373 30.7347 12.804 30.64C12.9427 30.432 13.604 30.0213 13.3827 29.7693C13.276 29.648 13.3534 29.324 13.3827 29.1893C13.5 28.636 13.6934 28.0627 13.744 27.4973C13.804 26.844 13.9227 26.0187 14.1307 25.3973C14.2067 25.172 14.2814 24.9413 14.372 24.7213C14.4254 24.5907 14.6267 24.296 14.4453 24.2133C14.2693 24.136 14.252 24.04 14.252 23.8507C14.252 23.5613 13.256 23.3347 13.5027 22.9587C13.64 22.7507 13.972 23.0347 14.1307 23.152C14.3387 23.3053 14.1454 22.5693 14.1414 22.5493L14.128 22.4973L14.1147 22.444L14.0987 22.3867L14.0827 22.3293C14.0254 22.1093 13.864 21.392 13.9147 21.1707C13.98 20.8773 13.7 20.7347 14.0827 20.3253C14.2014 20.1987 14.38 20.0213 14.5427 20.18C14.5707 20.208 14.5787 20.1973 14.6147 20.18C14.784 20.0987 14.9813 20.072 15.1453 19.9867C15.2907 19.912 15.4507 19.8187 15.58 19.7213C15.6254 19.688 15.6973 19.684 15.7507 19.6733C16.2453 19.5733 16.324 19.3587 16.9107 19.504C16.9814 19.5707 17.4054 19.6533 17.5614 19.7213C17.628 19.7507 17.624 19.736 17.6334 19.6733C17.648 19.584 17.8093 19.2813 17.876 19.2133C18.1453 18.936 18.5001 18.844 18.8654 18.948C19.2427 19.0547 19.3187 19.112 19.5173 19.456C19.56 19.5333 19.7267 19.9373 19.7107 20.012C19.6947 20.0773 20.0253 20.352 20.0253 20.5653C20.0253 20.712 19.6467 20.68 19.5654 20.6627C19.4134 20.6307 19.3227 20.884 19.1547 20.952Z" fill="#231F20"/>
<path fill-rule="evenodd" clip-rule="evenodd" d="M10.0399 30.9213H23.1173C23.9399 28.8946 25.6999 27.34 26.6279 27.376C27.5573 27.412 28.9386 29.1453 30.0919 30.9213H30.9679V31.5826H10.0399V30.9213Z" fill="#231F20"/>
<path fill-rule="evenodd" clip-rule="evenodd" d="M14.856 23.1987C14.972 23.0133 15.2453 22.5933 15.268 22.4027C15.2933 22.1547 15.5627 21.9213 15.6053 21.5333C15.624 21.3427 15.632 21.3053 15.484 21.436C15.4226 21.4907 15.1787 21.6293 15.0973 21.6293C14.86 21.6293 15.0213 22.3093 14.88 22.4507C14.8133 22.5173 14.8093 22.9067 14.8133 23.0053C14.8147 23.028 14.82 23.2107 14.856 23.1987ZM18.2373 22.668C18.0733 22.8813 17.932 23.088 17.7294 23.272C17.5814 23.4067 17.5573 23.4547 17.6333 23.6333C17.808 24.0413 17.9746 24.62 18.02 25.0587C18.0346 25.2027 18.092 25.8293 18.164 25.88C18.3573 26.0187 18.5867 26.1427 18.7693 26.292C18.7867 26.3053 18.9053 26.4427 18.9387 26.3867C18.9853 26.308 18.916 26.124 18.9133 26.0253C18.8987 25.4613 18.7413 23.6453 18.4786 23.152C18.42 23.0413 18.3413 22.8413 18.336 22.7147C18.328 22.6253 18.3413 22.532 18.2373 22.668Z" fill="#FFF200"/>
</svg>
